<svg width="50" height="39" viewBox="0 0 50 39" fill="none" xmlns="http://www.w3.org/2000/svg">
<path d="M9.13789 24.7859H43.8334C44.4709 24.7859 44.7897 24.7859 44.9949 24.6837C45.1716 24.5938 45.3123 24.453 45.4019 24.2765C45.5038 24.0709 45.5038 23.7528 45.5038 23.1163V21.8361C45.5038 21.1996 45.5038 20.8815 45.4019 20.676C45.3123 20.4995 45.1716 20.3586 44.9949 20.2688C44.7897 20.1666 44.4709 20.1666 43.8334 20.1666H9.13789C8.50044 20.1666 8.18171 20.1666 7.9765 20.2688C7.79981 20.3586 7.65911 20.4995 7.5695 20.676C7.46752 20.8815 7.46752 21.1996 7.46752 21.8361V23.1163C7.46752 23.7528 7.46752 24.0709 7.5695 24.2765C7.65911 24.453 7.79981 24.5938 7.9765 24.6837C8.18171 24.7859 8.50044 24.7859 9.13789 24.7859Z" fill="url(#paint0_linear_5_36)"/>
<path d="M9.13789 38.1H43.8334C44.4709 38.1 44.7897 38.1 44.9949 37.9978C45.1716 37.908 45.3123 37.7672 45.4019 37.5906C45.5038 37.385 45.5038 37.0669 45.5038 36.4304V35.1503C45.5038 34.5138 45.5038 34.1956 45.4019 33.9901C45.3123 33.8135 45.1716 33.6727 44.9949 33.5829C44.7897 33.4807 44.4709 33.4807 43.8334 33.4807H9.13789C8.50044 33.4807 8.18171 33.4807 7.9765 33.5829C7.79981 33.6727 7.65911 33.8135 7.5695 33.9901C7.46752 34.1956 7.46752 34.5138 7.46752 35.1503V36.4304C7.46752 37.0669 7.46752 37.385 7.5695 37.5906C7.65911 37.7672 7.79981 37.908 7.9765 37.9978C8.18171 38.1 8.50044 38.1 9.13789 38.1Z" fill="url(#paint1_linear_5_36)"/>
<path d="M9.13789 11.4718H43.8334C44.4709 11.4718 44.7897 11.4718 44.9949 11.3696C45.1716 11.2797 45.3123 11.1389 45.4019 10.9624C45.5038 10.7568 45.5038 10.4387 45.5038 9.80222V8.52206C45.5038 7.8856 45.5038 7.56746 45.4019 7.36189C45.3123 7.18535 45.1716 7.04454 44.9949 6.95469C44.7897 6.85249 44.4709 6.85249 43.8334 6.85249H9.13789C8.50044 6.85249 8.18171 6.85249 7.9765 6.95469C7.79981 7.04454 7.65911 7.18535 7.5695 7.36189C7.46752 7.56746 7.46752 7.8856 7.46752 8.52206V9.80222C7.46752 10.4387 7.46752 10.7568 7.5695 10.9624C7.65911 11.1389 7.79981 11.2797 7.9765 11.3696C8.18171 11.4718 8.50044 11.4718 9.13789 11.4718Z" fill="url(#paint2_linear_5_36)"/>
<path d="M2.52433 30.3384L37.2198 30.3384C37.8573 30.3384 38.176 30.3384 38.3812 30.2362C38.5579 30.1463 38.6986 30.0055 38.7882 29.829C38.8902 29.6234 38.8902 29.3053 38.8902 28.6688V27.3887C38.8902 26.7522 38.8902 26.4341 38.7882 26.2285C38.6986 26.052 38.5579 25.9112 38.3812 25.8213C38.176 25.7191 37.8573 25.7191 37.2198 25.7191H2.52433C1.88688 25.7191 1.56815 25.7191 1.36294 25.8213C1.18625 25.9112 1.04555 26.052 0.955942 26.2285C0.85396 26.4341 0.85396 26.7522 0.85396 27.3887V28.6688C0.85396 29.3053 0.85396 29.6234 0.955942 29.829C1.04555 30.0055 1.18625 30.1463 1.36294 30.2362C1.56815 30.3384 1.88688 30.3384 2.52433 30.3384Z" fill="url(#paint3_linear_5_36)"/>
<path d="M2.52433 17.0525L37.2198 17.0525C37.8573 17.0525 38.176 17.0525 38.3812 16.9503C38.5579 16.8604 38.6986 16.7196 38.7882 16.5431C38.8902 16.3375 38.8902 16.0194 38.8902 15.3829V14.1028C38.8902 13.4663 38.8902 13.1482 38.7882 12.9426C38.6986 12.766 38.5579 12.6252 38.3812 12.5354C38.176 12.4332 37.8573 12.4332 37.2198 12.4332H2.52433C1.88688 12.4332 1.56815 12.4332 1.36294 12.5354C1.18625 12.6252 1.04555 12.766 0.955942 12.9426C0.85396 13.1482 0.85396 13.4663 0.85396 14.1028V15.3829C0.85396 16.0194 0.85396 16.3375 0.955942 16.5431C1.04555 16.7196 1.18625 16.8604 1.36294 16.9503C1.56815 17.0525 1.88688 17.0525 2.52433 17.0525Z" fill="url(#paint4_linear_5_36)"/>
<path d="M2.52433 3.76659L37.2198 3.76659C37.8573 3.76659 38.176 3.76659 38.3812 3.66439C38.5579 3.57454 38.6986 3.43373 38.7882 3.25719C38.8902 3.05162 38.8902 2.73348 38.8902 2.09702V0.816857C38.8902 0.180396 38.8902 -0.137747 38.7882 -0.343315C38.6986 -0.519856 38.5579 -0.660663 38.3812 -0.750513C38.176 -0.852713 37.8573 -0.852713 37.2198 -0.852713L2.52433 -0.852714C1.88688 -0.852714 1.56815 -0.852714 1.36294 -0.750513C1.18625 -0.660663 1.04555 -0.519856 0.955942 -0.343315C0.85396 -0.137747 0.85396 0.180396 0.85396 0.816857L0.85396 2.09702C0.85396 2.73348 0.85396 3.05162 0.955942 3.25719C1.04555 3.43373 1.18625 3.57454 1.36294 3.66439C1.56815 3.76659 1.88688 3.76659 2.52433 3.76659Z" fill="url(#paint5_linear_5_36)"/>
<defs>
<linearGradient id="paint0_linear_5_36" x1="7.46752" y1="22.4762" x2="45.5038" y2="22.4762" gradientUnits="userSpaceOnUse">
<stop stop-color="#FD42FB"/>
<stop offset="0.1525" stop-color="#E39EE9"/>
<stop offset="0.3701" stop-color="#CCF4FA"/>
<stop offset="0.5591" stop-color="#84F1F9"/>
<stop offset="0.7396" stop-color="#00E2E3"/>
<stop offset="0.9883" stop-color="#00C2FF"/>
</linearGradient>
<linearGradient id="paint1_linear_5_36" x1="7.46752" y1="35.7904" x2="45.5038" y2="35.7904" gradientUnits="userSpaceOnUse">
<stop stop-color="#FD42FB"/>
<stop offset="0.1525" stop-color="#E39EE9"/>
<stop offset="0.3701" stop-color="#CCF4FA"/>
<stop offset="0.5591" stop-color="#84F1F9"/>
<stop offset="0.7396" stop-color="#00E2E3"/>
<stop offset="0.9883" stop-color="#00C2FF"/>
</linearGradient>
<linearGradient id="paint2_linear_5_36" x1="7.46752" y1="9.16215" x2="45.5038" y2="9.16215" gradientUnits="userSpaceOnUse">
<stop stop-color="#FD42FB"/>
<stop offset="0.1525" stop-color="#E39EE9"/>
<stop offset="0.3701" stop-color="#CCF4FA"/>
<stop offset="0.5591" stop-color="#84F1F9"/>
<stop offset="0.7396" stop-color="#00E2E3"/>
<stop offset="0.9883" stop-color="#00C2FF"/>
</linearGradient>
<linearGradient id="paint3_linear_5_36" x1="0.85396" y1="28.0288" x2="38.8902" y2="28.0288" gradientUnits="userSpaceOnUse">
<stop stop-color="#FD42FB"/>
<stop offset="0.1525" stop-color="#E39EE9"/>
<stop offset="0.3701" stop-color="#CCF4FA"/>
<stop offset="0.5591" stop-color="#84F1F9"/>
<stop offset="0.7396" stop-color="#00E2E3"/>
<stop offset="0.9883" stop-color="#00C2FF"/>
</linearGradient>
<linearGradient id="paint4_linear_5_36" x1="0.85396" y1="14.7429" x2="38.8902" y2="14.7429" gradientUnits="userSpaceOnUse">
<stop stop-color="#FD42FB"/>
<stop offset="0.1525" stop-color="#E39EE9"/>
<stop offset="0.3701" stop-color="#CCF4FA"/>
<stop offset="0.5591" stop-color="#84F1F9"/>
<stop offset="0.7396" stop-color="#00E2E3"/>
<stop offset="0.9883" stop-color="#00C2FF"/>
</linearGradient>
<linearGradient id="paint5_linear_5_36" x1="0.85396" y1="1.45694" x2="38.8902" y2="1.45694" gradientUnits="userSpaceOnUse">
<stop stop-color="#FD42FB"/>
<stop offset="0.1525" stop-color="#E39EE9"/>
<stop offset="0.3701" stop-color="#CCF4FA"/>
<stop offset="0.5591" stop-color="#84F1F9"/>
<stop offset="0.7396" stop-color="#00E2E3"/>
<stop offset="0.9883" stop-color="#00C2FF"/>
</linearGradient>
</defs>
</svg> 